<?xml version="1.0" encoding="UTF-8" standalone="no"?>
<!DOCTYPE svg PUBLIC "-//W3C//DTD SVG 1.1//EN" "http://www.w3.org/Graphics/SVG/1.1/DTD/svg11.dtd">
<svg width="100%" height="100%" viewBox="0 0 453 273" version="1.1" xmlns="http://www.w3.org/2000/svg" xmlns:xlink="http://www.w3.org/1999/xlink" xml:space="preserve" xmlns:serif="http://www.serif.com/" style="fill-rule:evenodd;clip-rule:evenodd;stroke-linecap:round;stroke-linejoin:round;stroke-miterlimit:1.5;">
    <g transform="matrix(1,0,0,1,-11135,-2732)">
        <g transform="matrix(1.60854,0,0,1.64994,1311.53,2343.62)">
            <g id="arc-symbol" transform="matrix(1.01416,0,0,1,11.0912,-28.2837)">
                <g transform="matrix(0.36231,-1.13184e-17,-1.58458e-16,0.354189,2266.81,-559.399)">
                    <path d="M10369.7,2753.94C10369.7,2676.4 10432.6,2613.44 10510.2,2613.44C10587.7,2613.44 10650.7,2676.4 10650.7,2753.94" style="fill:none;stroke:black;stroke-width:70.89px;"/>
                </g>
                <g transform="matrix(0.894979,-3.16434e-17,-3.91423e-16,0.99022,-3256.79,-2310.99)">
                    <path d="M10369.7,2753.94C10369.7,2676.4 10432.6,2613.44 10510.2,2613.44C10587.7,2613.44 10650.7,2676.4 10650.7,2753.94" style="fill:none;stroke:black;stroke-width:26.89px;"/>
                </g>
                <g transform="matrix(0.640246,-2.26369e-17,-2.80014e-16,0.708379,-615.29,-1534.82)">
                    <path d="M10369.7,2753.94C10369.7,2676.4 10432.6,2613.44 10510.2,2613.44C10587.7,2613.44 10650.7,2676.4 10650.7,2753.94" style="fill:none;stroke:black;stroke-width:37.59px;"/>
                </g>
            </g>
        </g>
    </g>
</svg>
