<?xml version="1.0" encoding="UTF-8" standalone="no"?>
<!DOCTYPE svg PUBLIC "-//W3C//DTD SVG 1.1//EN" "http://www.w3.org/Graphics/SVG/1.1/DTD/svg11.dtd">
<svg width="100%" height="100%" viewBox="0 0 324 326" version="1.1" xmlns="http://www.w3.org/2000/svg" xmlns:xlink="http://www.w3.org/1999/xlink" xml:space="preserve" xmlns:serif="http://www.serif.com/" style="fill-rule:evenodd;clip-rule:evenodd;stroke-linejoin:round;stroke-miterlimit:2;">
    <g transform="matrix(1,0,0,1,-7613,-5461)">
        <g transform="matrix(1.72862,0,0,2.81605,1047.37,0)">
            <g id="logo" transform="matrix(0.578495,0,0,0.355107,-810.275,149.124)">
                <g transform="matrix(1,0,0,1,400.259,-87.6982)">
                    <path d="M7728.98,5252.51C7761.36,5271.26 7783.17,5306.29 7783.17,5346.37C7783.17,5386.46 7761.36,5421.49 7728.98,5440.23C7696.6,5421.49 7674.79,5386.46 7674.79,5346.37C7674.79,5306.29 7696.6,5271.26 7728.98,5252.51Z" style="fill:rgb(18,132,255);"/>
                </g>
                <g transform="matrix(1,0,0,1,364.552,554.27)">
                    <circle cx="7710.5" cy="4704.41" r="108.379" style="fill:rgb(253,55,95);"/>
                </g>
                <g transform="matrix(0.992582,0,0,0.992582,529.323,589.971)">
                    <circle cx="7710.5" cy="4704.41" r="108.379" style="fill:rgb(18,132,255);"/>
                </g>
                <g transform="matrix(1,0,0,1,418.742,445.891)">
                    <circle cx="7710.5" cy="4704.41" r="108.379" style="fill:rgb(191,90,242);"/>
                </g>
                <g transform="matrix(1,0,0,1,-192.363,55.4011)">
                    <path d="M8268.21,5190.48C8275.09,5137.27 8320.62,5096.11 8375.69,5096.11C8395.05,5096.11 8413.24,5101.2 8428.98,5110.11C8422.11,5163.32 8376.58,5204.49 8321.5,5204.49C8302.14,5204.49 8283.96,5199.4 8268.21,5190.48Z" style="fill:rgb(191,90,242);"/>
                </g>
                <g transform="matrix(1,0,0,1,-325.809,-194.183)">
                    <path d="M8456.95,5359.24C8488.72,5378.13 8510.04,5412.82 8510.04,5452.45C8510.04,5492.65 8488.1,5527.77 8455.55,5546.48C8423.35,5527.88 8401.66,5493.08 8401.66,5453.26C8401.66,5412.85 8423.98,5377.62 8456.95,5359.24Z" style="fill:rgb(18,132,255);"/>
                </g>
                <g transform="matrix(1.01118,0,0,1.01118,254.24,-138.37)">
                    <path d="M7680.76,5244.2C7696.51,5235.29 7714.69,5230.2 7734.05,5230.2C7789.12,5230.2 7834.66,5271.37 7841.53,5324.57C7825.79,5333.49 7807.6,5338.58 7788.24,5338.58C7733.17,5338.58 7687.63,5297.41 7680.76,5244.2Z" style="fill:rgb(253,55,95);"/>
                </g>
                <g transform="matrix(1.01503,0,0,1.01503,-350.835,361.783)">
                    <path d="M8355.66,4731.14C8383.97,4747.87 8404.12,4776.98 8408.64,4811.01C8392.74,4820.23 8374.28,4825.52 8354.6,4825.55C8335.49,4825.52 8317.51,4820.58 8301.87,4811.92C8305.99,4777.27 8326.62,4747.64 8355.66,4731.14Z" style="fill:rgb(255,153,0);"/>
                </g>
            </g>
        </g>
    </g>
</svg>
